# xmcd
#
# Track frame offsets:
#  150
#  21477
#  41362
#  60245
#  94522
#  115080
#  139705
#  170412
#  182972
#  198937
#  215100
#
# Disc length: 3102 seconds
#
# Revision: 0
# Processed by: cddbd v1.4PL0 Copyright (c) Steve Scherf et al.
# Submitted via: AltoMP3_Maker 3.0
#
DISCID=950c1c0b
DTITLE=FAT DADDY - Back Where I Started From
DYEAR=1900
DGENRE=
TTITLE0=Cab Driver Blues
TTITLE1=Going To Plainfield
TTITLE2=Son Of Jump
TTITLE3=Let Me Be
TTITLE4=Caledonia
TTITLE5=Mannish Boy
TTITLE6=Seeing Eye Dog
TTITLE7=Slick Bottom Blues
TTITLE8=Shes Got What It Takes
TTITLE9=Crawdad
TTITLE10=Take Me Home Via Dobro
EXTD=
EXTT0=
EXTT1=
EXTT2=
EXTT3=
EXTT4=
EXTT5=
EXTT6=
EXTT7=
EXTT8=
EXTT9=
EXTT10=
PLAYORDER=
